<?xml version="1.0" standalone="no"?>
<!DOCTYPE svg PUBLIC "-//W3C//DTD SVG 20010904//EN"
 "http://www.w3.org/TR/2001/REC-SVG-20010904/DTD/svg10.dtd">
<svg version="1.0" xmlns="http://www.w3.org/2000/svg"
 width="400.000000pt" height="200.000000pt" viewBox="0 0 400.000000 200.000000"
 preserveAspectRatio="xMidYMid meet">

<g transform="translate(0.000000,200.000000) scale(0.100000,-0.100000)"
fill="#000000" stroke="none">
<path d="M1625 1788 c-3 -13 -11 -52 -18 -88 l-13 -65 -244 -1 c-274 -2 -412
-16 -605 -64 -204 -51 -341 -115 -428 -202 -62 -62 -87 -116 -87 -193 0 -82
33 -150 112 -229 83 -82 165 -137 312 -206 200 -95 453 -169 721 -210 72 -11
135 -20 141 -20 8 0 8 12 1 43 l-9 43 -141 33 c-437 103 -749 268 -836 443
-36 72 -39 116 -10 174 72 149 350 252 738 273 146 8 311 4 311 -8 -1 -3 -7
-35 -15 -71 -8 -36 -14 -68 -15 -72 0 -6 427 135 436 144 3 3 -257 229 -323
281 -22 18 -23 17 -28 -5z"/>
<path d="M750 1103 c-82 -30 -91 -157 -14 -189 46 -19 110 -18 118 2 11 29 6
34 -37 34 -50 0 -67 13 -67 50 0 37 33 64 75 63 31 -1 35 2 35 23 0 22 -4 24
-47 23 -27 0 -55 -3 -63 -6z"/>
<path d="M933 1090 c-36 -21 -46 -48 -41 -105 4 -53 42 -80 113 -80 39 0 61 6
82 21 57 42 53 138 -8 169 -40 21 -108 19 -146 -5z m105 -36 c42 -29 20 -104
-30 -104 -29 0 -58 28 -58 56 0 12 12 32 26 43 32 25 33 25 62 5z"/>
<path d="M1166 1078 c-3 -18 -8 -63 -11 -100 -5 -67 -5 -68 19 -68 23 0 26 5
32 63 l8 62 14 -63 c14 -62 15 -63 45 -60 27 3 32 9 49 57 25 75 31 76 23 4
l-7 -63 31 0 31 0 0 101 0 100 -42 -3 c-40 -3 -42 -5 -57 -50 -9 -26 -19 -49
-22 -52 -3 -4 -11 19 -18 49 l-12 55 -39 0 c-36 0 -39 -2 -44 -32z"/>
<path d="M1440 1026 c0 -46 -3 -91 -6 -100 -5 -14 6 -16 80 -16 79 0 86 2 86
20 0 17 -7 20 -50 20 -36 0 -50 4 -50 14 0 14 29 26 68 26 15 0 22 6 22 20 0
17 -7 20 -40 20 -28 0 -40 4 -40 14 0 11 14 16 48 18 40 3 47 6 50 26 3 21 1
22 -82 22 l-86 0 0 -84z"/>
<path d="M1638 1010 l-3 -100 33 0 32 0 0 74 c0 78 7 92 41 81 27 -9 20 -39
-9 -43 -17 -3 -22 -8 -17 -20 3 -9 12 -34 18 -54 11 -34 16 -38 44 -38 38 0
37 -3 17 45 -14 36 -14 38 5 52 28 19 29 78 2 93 -11 5 -51 10 -90 10 l-70 0
-3 -100z"/>
<path d="M1856 1064 c-3 -26 -6 -71 -6 -100 l0 -54 78 0 c85 0 102 8 102 50 0
14 -5 31 -12 38 -9 9 -9 15 0 24 19 19 15 66 -7 78 -11 5 -49 10 -84 10 l-64
0 -7 -46z m109 -14 c0 -9 -11 -16 -27 -18 -27 -3 -38 14 -21 32 12 12 48 2 48
-14z m3 -82 c3 -14 -3 -18 -27 -18 -25 0 -31 4 -31 21 0 16 5 20 27 17 17 -2
29 -10 31 -20z"/>
<path d="M2092 1010 l-53 -100 35 0 c29 0 39 5 48 25 9 20 18 25 49 25 33 0
40 -4 45 -25 5 -21 12 -25 41 -25 39 0 40 -9 -6 117 -29 78 -29 78 -67 81
l-39 3 -53 -101z m98 14 c0 -8 -7 -14 -15 -14 -17 0 -18 2 -9 24 7 18 24 12
24 -10z"/>
<path d="M2331 1091 c-29 -29 -26 -48 14 -88 46 -46 45 -57 -4 -50 -38 5 -39
4 -31 -22 6 -24 11 -26 60 -26 39 1 56 6 66 20 22 30 16 54 -22 89 -42 39 -39
61 8 51 27 -6 29 -5 26 17 -3 20 -9 23 -50 26 -37 2 -51 -1 -67 -17z"/>
<path d="M2576 1094 c-26 -26 -19 -61 19 -95 19 -18 35 -36 35 -42 0 -5 -18
-7 -40 -5 -36 3 -40 1 -40 -18 0 -25 17 -34 64 -34 79 0 101 64 40 120 -28 25
-33 34 -23 41 8 4 24 6 36 2 20 -4 23 -1 23 21 0 24 -3 26 -49 26 -32 0 -55
-6 -65 -16z"/>
<path d="M2842 1010 l-53 -100 35 0 c29 0 39 5 48 25 9 20 18 25 49 25 33 0
40 -4 45 -25 5 -21 12 -25 41 -25 39 0 40 -9 -6 117 -29 78 -29 78 -67 81
l-39 3 -53 -101z m98 14 c0 -8 -7 -14 -15 -14 -17 0 -18 2 -9 24 7 18 24 12
24 -10z"/>
<path d="M3171 1091 c-29 -29 -26 -45 14 -90 19 -21 35 -42 35 -46 0 -4 -17
-5 -39 -2 -38 5 -39 4 -31 -22 6 -24 11 -26 60 -26 39 1 56 6 66 20 22 30 16
54 -22 89 -42 39 -39 61 8 51 27 -6 29 -5 26 17 -3 20 -9 23 -50 26 -37 2 -51
-1 -67 -17z"/>
<path d="M2720 935 c0 -21 5 -25 30 -25 25 0 30 4 30 25 0 21 -5 25 -30 25
-25 0 -30 -4 -30 -25z"/>
<path d="M3060 935 c0 -21 5 -25 30 -25 25 0 30 4 30 25 0 21 -5 25 -30 25
-25 0 -30 -4 -30 -25z"/>
</g>
</svg>
